<svg viewBox="0 0 24 24" xmlns="http://www.w3.org/2000/svg" xmlns:xlink="http://www.w3.org/1999/xlink" width="24.000000" height="24.000000" fill="none">
	<rect id="camera" width="24.000000" height="24.000000" x="0.000000" y="0.000000" />
	<path id="Vector" d="M22.4142 20.4142C22.0391 20.7893 21.5304 21 21 21L3 21C2.46957 21 1.96086 20.7893 1.58579 20.4142C1.21071 20.0391 1 19.5304 1 19L1 8C1 7.46957 1.21071 6.96086 1.58579 6.58579C1.96086 6.21071 2.46957 6 3 6L7 6L9 3L15 3L17 6L21 6C21.5304 6 22.0391 6.21071 22.4142 6.58579C22.7893 6.96086 23 7.46957 23 8L23 19C23 19.5304 22.7893 20.0391 22.4142 20.4142Z" fill-rule="evenodd" stroke="rgb(22,163,116)" stroke-linecap="round" stroke-linejoin="round" stroke-width="2" />
	<path id="Vector" d="M12 17C9.79086 17 8 15.2091 8 13C8 10.7909 9.79086 9 12 9C14.2091 9 16 10.7909 16 13C16 15.2091 14.2091 17 12 17Z" stroke="rgb(22,163,116)" stroke-linecap="round" stroke-linejoin="round" stroke-width="2" />
</svg>
