<svg viewBox="0 0 24 24" xmlns="http://www.w3.org/2000/svg" xmlns:xlink="http://www.w3.org/1999/xlink" width="24.000000" height="24.000000" fill="none" customFrame="#000000">
	<rect id="Chip" width="24.000000" height="24.000000" x="0.000000" y="0.000000" />
	<path id="Vector" d="M17 4C18.6569 4 20 5.34315 20 7L20 17C20 18.6569 18.6569 20 17 20L7 20C5.34315 20 4 18.6569 4 17L4 7C4 5.34315 5.34315 4 7 4L17 4ZM14.5 9C14.7761 9 15 9.22386 15 9.5L15 14.5C15 14.7761 14.7761 15 14.5 15L9.5 15C9.22386 15 9 14.7761 9 14.5L9 9.5C9 9.22386 9.22386 9 9.5 9L14.5 9ZM15 1L15 4M23 9L20 9M23 15L20 15M4 9L1 9M4 15L1 15M9 1L9 4M15 20L15 23M9 20L9 23" fill-rule="evenodd" stroke="rgb(0,17,255)" stroke-linecap="round" stroke-linejoin="round" stroke-width="2" />
</svg>
