<svg viewBox="0 0 20 20" xmlns="http://www.w3.org/2000/svg" xmlns:xlink="http://www.w3.org/1999/xlink" width="20.000000" height="20.000000" fill="none">
	<rect id="🧬 failed-build-status - Light" width="20.000000" height="20.000000" x="0.000000" y="0.000000" />
	<path id="Vector" d="M18.3334 9.99999C18.3334 14.6024 14.6024 18.3333 10 18.3333C5.39765 18.3333 1.66669 14.6024 1.66669 9.99999C1.66669 5.39762 5.39765 1.66666 10 1.66666C14.6024 1.66666 18.3334 5.39762 18.3334 9.99999ZM9.41077 11.4226C9.56705 11.5789 9.77901 11.6667 10 11.6667C10.221 11.6667 10.433 11.5789 10.5893 11.4226C10.7456 11.2663 10.8334 11.0543 10.8334 10.8333L10.8334 6.66666C10.8334 6.44564 10.7456 6.23368 10.5893 6.0774C10.433 5.92112 10.221 5.83332 10 5.83332C9.77901 5.83332 9.56705 5.92112 9.41077 6.0774C9.25449 6.23368 9.16669 6.44564 9.16669 6.66666L9.16669 10.8333C9.16669 11.0543 9.25449 11.2663 9.41077 11.4226ZM9.41077 13.9226C9.56705 14.0789 9.77901 14.1667 10 14.1667C10.221 14.1667 10.433 14.0789 10.5893 13.9226C10.7456 13.7663 10.8334 13.5543 10.8334 13.3333C10.8334 13.1123 10.7456 12.9004 10.5893 12.7441C10.433 12.5878 10.221 12.5 10 12.5C9.77901 12.5 9.56705 12.5878 9.41077 12.7441C9.25449 12.9004 9.16669 13.1123 9.16669 13.3333C9.16669 13.5543 9.25449 13.7663 9.41077 13.9226Z" fill="rgb(250,5,5)" fill-rule="evenodd" />
</svg>
