<svg viewBox="0 0 31.0345 30.5837" xmlns="http://www.w3.org/2000/svg" xmlns:xlink="http://www.w3.org/1999/xlink" width="31.034479" height="30.583725" fill="none">
	<rect id="li:history" width="31.034477" height="30.583719" x="0.000000" y="0.000000" fill="rgb(255,255,255)" fill-opacity="0" />
	<path id="Vector (Stroke)" d="M3.87931 2.54863C4.59347 2.54863 5.17241 3.11916 5.17241 3.82295L5.17241 8.92024L10.3448 8.92024C11.059 8.92024 11.6379 9.49077 11.6379 10.1946C11.6379 10.8983 11.059 11.4689 10.3448 11.4689L3.87931 11.4689C3.16515 11.4689 2.58621 10.8983 2.58621 10.1946L2.58621 3.82295C2.58621 3.11916 3.16515 2.54863 3.87931 2.54863Z" fill="rgb(0,0,0)" fill-rule="evenodd" />
	<path id="Vector (Stroke)" d="M14.7021 2.58907C17.5959 2.41021 20.4667 3.19494 22.8534 4.81725C25.2402 6.43955 27.0045 8.80529 27.8629 11.5345C28.7213 14.2638 28.6241 17.1981 27.5868 19.8663C26.5495 22.5345 24.6323 24.7818 22.1432 26.2471C19.6541 27.7125 16.7374 28.3109 13.8617 27.9464C10.9859 27.5818 8.31797 26.2753 6.28625 24.2369C4.25452 22.1984 2.97694 19.5461 2.65869 16.7061C2.5803 16.0065 3.09219 15.3768 3.80204 15.2996C4.51189 15.2223 5.15088 15.7268 5.22927 16.4263C5.48387 18.6984 6.50593 20.8202 8.13132 22.4509C9.7567 24.0817 11.8911 25.1269 14.1917 25.4185C16.4923 25.7102 18.8256 25.2314 20.8169 24.0592C22.8082 22.8869 24.3419 21.0891 25.1717 18.9545C26.0016 16.8199 26.0794 14.4725 25.3926 12.2891C24.7059 10.1057 23.2945 8.2131 21.3851 6.91526C19.4756 5.61741 17.179 4.98963 14.864 5.13272C12.5498 5.27576 10.3514 6.18088 8.6218 7.70275C8.62122 7.70326 8.62065 7.70377 8.62007 7.70428L4.74436 11.1418C4.21353 11.6126 3.39591 11.5702 2.91816 11.047C2.44042 10.5239 2.48345 9.71818 3.01428 9.24737L6.89719 5.80351C9.05956 3.90002 11.8084 2.76794 14.7021 2.58907Z" fill="rgb(0,0,0)" fill-rule="evenodd" />
	<path id="Vector (Stroke)" d="M15.5172 7.64592C16.2314 7.64592 16.8103 8.21645 16.8103 8.92024L16.8103 14.5043L21.268 16.7007C21.9067 17.0154 22.1656 17.7809 21.8462 18.4104C21.5269 19.0399 20.7501 19.295 20.1114 18.9803L14.9389 16.4316C14.5009 16.2158 14.2241 15.7745 14.2241 15.2919L14.2241 8.92024C14.2241 8.21645 14.8031 7.64592 15.5172 7.64592Z" fill="rgb(0,0,0)" fill-rule="evenodd" />
</svg>
