<svg viewBox="0 0 26.402 24.5" xmlns="http://www.w3.org/2000/svg" xmlns:xlink="http://www.w3.org/1999/xlink" width="26.401978" height="24.499969" fill="none">
	<rect id="streamlinehq-interface-lighting-light-bulb-&#10;          line-48-ico_gczGpYcH9iRpDo9S" width="25.940098" height="24.000000" x="0.000000" y="0.000000" fill="rgb(255,255,255)" fill-opacity="0" transform="matrix(0.999811,0.0194488,-0.0194488,0.999811,0.466797,0)" />
	<path id="Vector" d="M0 8.5C0 3.8056 4.11323 0 9.18712 0C14.261 0 18.3742 3.8056 18.3742 8.5C18.3742 11.2167 16.9968 13.6356 14.8528 15.1917C14.679 15.8414 14.4827 16.4648 14.3279 16.9312C14.1622 17.4303 13.7141 17.7931 13.1529 17.8473C12.3997 17.9201 11.1302 18 9.18712 18C7.24399 18 5.97449 17.9201 5.22136 17.8473C4.66014 17.7931 4.21208 17.4303 4.04638 16.9312C3.8915 16.4648 3.69522 15.8414 3.52142 15.1917C1.37746 13.6356 0 11.2167 0 8.5Z" fill-rule="nonzero" stroke="rgb(242,43,5)" stroke-linecap="round" stroke-linejoin="round" stroke-width="3" transform="matrix(0.999811,0.0194488,-0.0194488,0.999811,4.21985,1.57329)" />
	<path id="Vector" d="M0 0.00899887C0.109489 0.663999 0.223626 1.2601 0.319172 1.7309C0.453574 2.3933 0.962756 2.92535 1.68303 3.02615C2.24836 3.1053 3.03369 3.1737 4.05941 3.1737C5.03486 3.1737 5.83636 3.11185 6.4466 3.0377C7.30278 2.93375 7.90254 2.2749 7.99555 1.4806L8.16891 0" fill-rule="nonzero" stroke="rgb(242,43,5)" stroke-linecap="round" stroke-linejoin="round" stroke-width="3" transform="matrix(0.999811,0.0194488,-0.0194488,0.999811,8.99988,19.4958)" />
	<path id="Vector" d="M5.40419 5C5.40419 2.2386 2.98462 0 0 0" fill-rule="nonzero" stroke="rgb(242,43,5)" stroke-linecap="round" stroke-linejoin="round" stroke-width="3" transform="matrix(0.999811,0.0194488,-0.0194488,0.999811,13.3468,4.75139)" />
</svg>
