<svg viewBox="0 0 24.8276 24.467" xmlns="http://www.w3.org/2000/svg" xmlns:xlink="http://www.w3.org/1999/xlink" width="24.827585" height="24.466980" fill="none">
	<defs>
		<filter id="pixso_custom_mask_type_alpha">
			<feColorMatrix type="matrix" values="0 0 0 0 1 0 0 0 0 1 0 0 0 0 1 0 0 0 1 0 " />
		</filter>
		<clipPath id="clipPath_0">
			<rect width="24.827583" height="24.466972" x="0.000000" y="0.000000" fill="rgb(255,255,255)" />
		</clipPath>
	</defs>
	<mask id="mask_0" width="22.758007" height="19.369688" x="1.034534" y="2.038940" maskUnits="userSpaceOnUse">
		<g filter="url(#pixso_custom_mask_type_alpha)">
			<path id="Mask" d="M23.3382 16.6202L15.4016 3.65376C14.782 2.64246 13.6647 2.03894 12.413 2.03894C11.1613 2.03894 10.0441 2.64246 9.42544 3.65376L1.48889 16.6202C0.90027 17.5816 0.882683 18.7376 1.4413 19.7123C2.04027 20.7592 3.20406 21.4086 4.47648 21.4086L20.3496 21.4086C21.623 21.4086 22.7858 20.7592 23.3858 19.7123C23.9444 18.7376 23.9268 17.5816 23.3382 16.6202ZM20.3495 19.3697C20.8854 19.3697 21.3468 19.123 21.5837 18.7101C21.6954 18.5164 21.8413 18.1219 21.5661 17.6733L13.6295 4.70788C13.1464 3.91882 11.6795 3.91882 11.1964 4.70788L3.26092 17.6733C2.98472 18.1219 3.13161 18.5164 3.24334 18.7101C3.4792 19.123 3.94058 19.3697 4.47644 19.3697L20.3495 19.3697ZM12.4133 8.15568C11.8422 8.15568 11.3788 8.6124 11.3788 9.17514L11.3788 13.253C11.3788 13.8157 11.8422 14.2724 12.4133 14.2724C12.9843 14.2724 13.4478 13.8157 13.4478 13.253L13.4478 9.17514C13.4478 8.6124 12.9843 8.15568 12.4133 8.15568ZM11.3788 16.3113C11.3788 15.7486 11.8422 15.2919 12.4133 15.2919C12.9843 15.2919 13.4478 15.7486 13.4478 16.3113C13.4478 16.8741 12.9843 17.3308 12.4133 17.3308C11.8422 17.3308 11.3788 16.8741 11.3788 16.3113Z" fill="rgb(35,31,32)" fill-rule="evenodd" />
		</g>
	</mask>
	<rect id="Icon/Outline/alert-triangle" width="24.827583" height="24.466972" x="0.000000" y="0.000000" fill="rgb(255,255,255)" fill-opacity="0" />
	<path id="Background" d="M0 0L24 0L24 24L0 24L0 0Z" fill-rule="evenodd" />
	<path id="Mask" d="M23.3382 16.6202L15.4016 3.65376C14.782 2.64246 13.6647 2.03894 12.413 2.03894C11.1613 2.03894 10.0441 2.64246 9.42544 3.65376L1.48889 16.6202C0.90027 17.5816 0.882683 18.7376 1.4413 19.7123C2.04027 20.7592 3.20406 21.4086 4.47648 21.4086L20.3496 21.4086C21.623 21.4086 22.7858 20.7592 23.3858 19.7123C23.9444 18.7376 23.9268 17.5816 23.3382 16.6202ZM20.3495 19.3697C20.8854 19.3697 21.3468 19.123 21.5837 18.7101C21.6954 18.5164 21.8413 18.1219 21.5661 17.6733L13.6295 4.70788C13.1464 3.91882 11.6795 3.91882 11.1964 4.70788L3.26092 17.6733C2.98472 18.1219 3.13161 18.5164 3.24334 18.7101C3.4792 19.123 3.94058 19.3697 4.47644 19.3697L20.3495 19.3697ZM12.4133 8.15568C11.8422 8.15568 11.3788 8.6124 11.3788 9.17514L11.3788 13.253C11.3788 13.8157 11.8422 14.2724 12.4133 14.2724C12.9843 14.2724 13.4478 13.8157 13.4478 13.253L13.4478 9.17514C13.4478 8.6124 12.9843 8.15568 12.4133 8.15568ZM11.3788 16.3113C11.3788 15.7486 11.8422 15.2919 12.4133 15.2919C12.9843 15.2919 13.4478 15.7486 13.4478 16.3113C13.4478 16.8741 12.9843 17.3308 12.4133 17.3308C11.8422 17.3308 11.3788 16.8741 11.3788 16.3113Z" fill="rgb(54,83,20)" fill-rule="evenodd" />
	<g mask="url(#mask_0)">
		<g id="🎨 Color" clip-path="url(#clipPath_0)" customFrame="url(#clipPath_0)">
			<rect id="🎨 Color" width="24.827583" height="24.466972" x="0.000000" y="0.000000" fill="rgb(255,255,255)" fill-opacity="0" />
			<path id="Background" d="M0 0L24 0L24 24L0 24L0 0Z" fill-rule="evenodd" />
		</g>
	</g>
</svg>
