<svg viewBox="0 0 25.8621 25.4864" xmlns="http://www.w3.org/2000/svg" xmlns:xlink="http://www.w3.org/1999/xlink" width="25.862064" height="25.486420" fill="none">
	<rect id="streamlinehq-interface-setting-slider-horizontal-&#10;          line-48-ico_EuXWNu8BZQOncq5Y" width="25.862062" height="25.486431" x="0.000000" y="0.000000" fill="rgb(255,255,255)" fill-opacity="0" />
	<path id="Vector" d="M1.07759 12.7432L8.0819 12.7432" stroke="rgb(0,0,0)" stroke-width="3" />
	<path id="Vector" d="M17.7802 12.7432L24.7845 12.7432" stroke="rgb(0,0,0)" stroke-width="3" />
	<path id="Vector" d="M12.931 14.8671C11.7408 14.8671 10.7759 13.9162 10.7759 12.7432C10.7759 11.5702 11.7408 10.6194 12.931 10.6194C14.1213 10.6194 15.0862 11.5702 15.0862 12.7432C15.0862 13.9162 14.1213 14.8671 12.931 14.8671Z" stroke="rgb(0,0,0)" stroke-width="3" />
	<path id="Vector" d="M9.15948 4.24774L24.7845 4.24774" stroke="rgb(0,0,0)" stroke-width="3" />
	<path id="Vector" d="M4.31034 6.37161C3.12007 6.37161 2.15517 5.42072 2.15517 4.24774C2.15517 3.07476 3.12007 2.12387 4.31034 2.12387C5.50061 2.12387 6.46551 3.07476 6.46551 4.24774C6.46551 5.42072 5.50061 6.37161 4.31034 6.37161Z" stroke="rgb(0,0,0)" stroke-width="3" />
	<path id="Vector" d="M1.07759 21.2387L16.7026 21.2387" stroke="rgb(0,0,0)" stroke-width="3" />
	<path id="Vector" d="M21.5517 23.3625C20.3615 23.3625 19.3965 22.4117 19.3965 21.2387C19.3965 20.0657 20.3615 19.1148 21.5517 19.1148C22.742 19.1148 23.7069 20.0657 23.7069 21.2387C23.7069 22.4117 22.742 23.3625 21.5517 23.3625Z" stroke="rgb(0,0,0)" stroke-width="3" />
</svg>
