<svg viewBox="0 0 16 16" xmlns="http://www.w3.org/2000/svg" xmlns:xlink="http://www.w3.org/1999/xlink" width="16.000000" height="16.000000" fill="none" customFrame="#000000">
	<rect id="16px/面性/提示/Success_强" width="16.000000" height="16.000000" x="0.000000" y="0.000000" />
	<path id="矩形" d="M16 0L0 0L0 16L16 16L16 0Z" opacity="0" fill="rgb(255,255,255)" fill-rule="evenodd" />
	<path id="路径" d="M8 1C11.866 1 15 4.13401 15 8C15 11.866 11.866 15 8 15C4.13401 15 1 11.866 1 8C1 4.13401 4.13401 1 8 1Z" fill="rgb(0,180,42)" fill-rule="evenodd" />
	<path id="矩形" d="M0.501688 6.20445e-08L1.00169 6.20445e-08C1.27783 -0.000136058 1.50169 0.223721 1.50169 0.499864C1.50169 0.499909 1.50169 0.499955 1.50155 0.5L1.50014 5.70063C1.49992 5.97672 1.27609 6.20049 1 6.20063L0 6.20063L0.0015521 0.5C0.00176344 0.223911 0.225599 0.000136232 0.501688 6.20445e-08Z" fill="rgb(255,255,255)" fill-rule="evenodd" transform="matrix(0.766044,0.642788,-0.642788,0.766044,10.0586,5.40552)" />
	<path id="矩形备份 3" d="M0.500002 0L1.00137 0C1.27316 0 1.49517 0.2171 1.50125 0.488817L1.57064 3.59102L0.570324 3.63068C0.294398 3.64162 0.0618469 3.42681 0.0509062 3.15088C0.0507713 3.14748 0.0506707 3.14407 0.0506054 3.14067L9.40006e-05 0.509597C-0.00520642 0.233505 0.214313 0.00539245 0.490405 9.20296e-05C0.493603 3.06196e-05 0.496803 0 0.500002 0Z" fill="rgb(255,255,255)" fill-rule="evenodd" transform="matrix(0.669131,-0.743145,0.743145,0.669131,4.45789,8.74225)" />
</svg>
