<svg viewBox="0 0 30 29.5643" xmlns="http://www.w3.org/2000/svg" xmlns:xlink="http://www.w3.org/1999/xlink" width="29.999996" height="29.564270" fill="none">
	<rect id="Setting" width="29.999996" height="29.564259" x="0.000000" y="0.000000" fill="rgb(0,0,0)" fill-opacity="0" />
	<g id="Iconly/Light-Outline/Setting">
		<g id="Setting">
			<path id="Combined-Shape" d="M15.334 2.46432C16.229 2.46432 17.099 2.82649 17.7227 3.45596C18.3453 4.08913 18.689 4.95758 18.6627 5.83835C18.6652 6.03667 18.7315 6.2658 18.8515 6.46659C19.0502 6.79918 19.364 7.03323 19.7365 7.12932C20.109 7.22047 20.499 7.1712 20.8302 6.9778C22.4302 6.07732 24.4665 6.61687 25.3802 8.18131L26.159 9.51047C26.179 9.5462 26.1965 9.58069 26.2115 9.61641C27.039 11.1574 26.4865 13.0976 24.949 13.9833C24.7252 14.1102 24.544 14.2876 24.419 14.5019C24.2253 14.8333 24.1715 15.2275 24.269 15.5896C24.369 15.9592 24.6078 16.2659 24.944 16.4556C25.7028 16.8855 26.269 17.6098 26.4952 18.4463C26.7215 19.2815 26.5977 20.1881 26.1565 20.9358L25.3265 22.2982C24.4127 23.8454 22.3765 24.3813 20.7927 23.4796C20.5815 23.3601 20.3377 23.2948 20.0952 23.2887L20.0877 23.2887C19.7265 23.2887 19.3552 23.4402 19.0852 23.705C18.8115 23.9748 18.6615 24.3345 18.664 24.7164C18.6553 26.5259 17.1615 27.9894 15.334 27.9894L13.7677 27.9894C11.9315 27.9894 10.4377 26.5185 10.4377 24.709C10.4352 24.486 10.3702 24.2544 10.249 24.0536C10.0527 23.7161 9.73525 23.4747 9.369 23.3786C9.00525 23.2825 8.6065 23.3355 8.279 23.5227C7.494 23.9538 6.57025 24.0586 5.72525 23.8245C4.8815 23.5892 4.15275 23.0176 3.72525 22.2601L2.944 20.9334C2.03025 19.3714 2.574 17.3696 4.1565 16.4679C4.60525 16.2129 4.884 15.7374 4.884 15.2275C4.884 14.7175 4.60525 14.2408 4.1565 13.9858C2.57275 13.0791 2.03025 11.0725 2.94275 9.51047L3.79025 8.13943C4.6915 6.5947 6.729 6.05022 8.31775 6.94947C8.534 7.07635 8.769 7.14041 9.00775 7.14287C9.7865 7.14287 10.4377 6.5097 10.4502 5.73117C10.4452 4.87258 10.789 4.04848 11.4152 3.4264C12.044 2.80555 12.879 2.46432 13.7677 2.46432L15.334 2.46432ZM15.334 4.31209L13.7677 4.31209C13.3802 4.31209 13.0177 4.46114 12.744 4.72969C12.4715 4.99946 12.3227 5.35793 12.3252 5.7398C12.299 7.54075 10.8052 8.99063 8.9965 8.99063C8.4165 8.98448 7.85775 8.83049 7.37275 8.54471C6.6915 8.16284 5.8015 8.39812 5.40275 9.08179L4.5565 10.4528C4.169 11.1156 4.4065 11.9914 5.0965 12.3868C6.12025 12.9707 6.759 14.0597 6.759 15.2275C6.759 16.3952 6.12025 17.483 5.094 18.0681C4.40775 18.4598 4.17025 19.3307 4.56775 20.0082L5.3565 21.3485C5.5515 21.6946 5.87025 21.9447 6.239 22.0469C6.6065 22.148 7.0115 22.1048 7.349 21.9201C7.84525 21.6331 8.42275 21.484 9.00275 21.484C9.289 21.484 9.57525 21.5197 9.85525 21.5936C10.7002 21.8178 11.434 22.3746 11.869 23.1224C12.1515 23.5917 12.3077 24.1399 12.3127 24.6991C12.3127 25.4998 12.9653 26.1416 13.7677 26.1416L15.334 26.1416C16.1327 26.1416 16.7852 25.5035 16.789 24.7164C16.784 23.8467 17.129 23.0201 17.7603 22.398C18.3828 21.7846 19.2527 21.4162 20.1227 21.4409C20.6927 21.4544 21.2415 21.606 21.7253 21.877C22.4215 22.2699 23.3102 22.0359 23.7127 21.3583L24.5427 19.9947C24.7278 19.6806 24.7815 19.2864 24.6828 18.923C24.5853 18.5596 24.3403 18.2442 24.0103 18.0582C23.2377 17.6197 22.6865 16.9126 22.4578 16.0651C22.2315 15.2336 22.3552 14.3258 22.7965 13.578C23.084 13.0853 23.5053 12.6702 24.0103 12.3844C24.6877 11.9939 24.9253 11.1205 24.5315 10.4405C24.5152 10.4134 24.5002 10.3851 24.4877 10.3555L23.7552 9.10396C23.3565 8.42029 22.469 8.18501 21.7727 8.5755C21.0203 9.01404 20.1252 9.13969 19.2652 8.91672C18.4065 8.69746 17.6865 8.1616 17.2378 7.40525C16.9503 6.93222 16.794 6.38159 16.789 5.8211C16.8002 5.39981 16.6502 5.02163 16.3777 4.74447C16.1065 4.46854 15.7252 4.31209 15.334 4.31209ZM14.5564 11.0553C16.8901 11.0553 18.7889 12.9277 18.7889 15.2276C18.7889 17.5274 16.8901 19.3974 14.5564 19.3974C12.2226 19.3974 10.3239 17.5274 10.3239 15.2276C10.3239 12.9277 12.2226 11.0553 14.5564 11.0553ZM14.5564 12.9031C13.2564 12.9031 12.1989 13.9465 12.1989 15.2276C12.1989 16.5087 13.2564 17.5496 14.5564 17.5496C15.8564 17.5496 16.9139 16.5087 16.9139 15.2276C16.9139 13.9465 15.8564 12.9031 14.5564 12.9031Z" fill="rgb(0,0,0)" fill-rule="evenodd" />
		</g>
	</g>
</svg>
