<svg viewBox="0 0 25 25" xmlns="http://www.w3.org/2000/svg" xmlns:xlink="http://www.w3.org/1999/xlink" width="25.000000" height="25.000000" fill="none" customFrame="#000000">
	<rect id="Shield Eye" width="25.000000" height="25.000000" x="0.000000" y="0.000000" />
	<g id="shield">
		<path id="Intersect" d="M12.5 3.6699L12.5 12.5L4.30333 12.5C3.99622 10.9974 3.90625 9.56358 3.90625 8.39919C3.90625 6.75171 4.08636 5.64367 4.08636 5.64367L8.29318 4.85309C8.89544 4.6728 9.62148 4.39246 10.2996 4.10965C11.0026 3.81648 11.7513 3.6699 12.5 3.6699Z" fill="rgb(199.856,209.462,233.644)" fill-rule="evenodd" />
		<path id="Intersect" d="M12.5 21.6772C12.044 21.6772 11.5881 21.5894 11.1587 21.4139C6.79449 19.6299 4.99623 15.8901 4.30333 12.5L12.5 12.5L12.5 21.6772Z" fill="rgb(51,109,255)" fill-rule="evenodd" />
		<path id="Intersect" d="M20.6967 12.5L12.5 12.5L12.5 3.6699C13.2487 3.6699 13.9974 3.81648 14.7004 4.10965C15.3785 4.39246 16.1046 4.6728 16.7068 4.85309C16.863 4.89983 17.0274 4.94483 17.1972 4.98799C19.3049 5.52381 21.075 7.09195 21.075 9.2333C21.075 9.29218 21.0737 9.35148 21.0709 9.41121C21.0283 10.3532 20.9198 11.4085 20.6967 12.5Z" fill="rgb(51,109,255)" fill-rule="evenodd" />
		<path id="Intersect" d="M20.6967 12.5C20.0038 15.8901 18.2055 19.6299 13.8413 21.4139C13.4119 21.5894 12.956 21.6772 12.5 21.6772L12.5 12.5L20.6967 12.5Z" fill="rgb(199.856,209.462,233.644)" fill-rule="evenodd" />
	</g>
	<g id="eye">
		<path id="Ellipse 2" d="M19.0872 14.2809C17.5108 15.4625 15.1449 16.7969 12.5 16.7969C9.85508 16.7969 7.48924 15.4625 5.91281 14.2809C4.68922 13.3638 4.68922 11.6362 5.91281 10.7191C7.48924 9.53752 9.85508 8.20312 12.5 8.20312C15.1449 8.20312 17.5108 9.53752 19.0872 10.7191C20.3108 11.6362 20.3108 13.3638 19.0872 14.2809Z" fill="rgb(199.856,209.462,233.644)" fill-rule="nonzero" />
		<circle id="Ellipse 3" cx="12.5" cy="12.5" r="2.734375" fill="rgb(51,109,255)" />
		<path id="Oval Copy" d="M14.4531 11.7188C14.8846 11.7188 15.2344 11.369 15.2344 10.9375C15.2344 10.506 14.8846 10.1562 14.4531 10.1562C14.0217 10.1562 13.6719 10.506 13.6719 10.9375C13.6719 11.369 14.0217 11.7188 14.4531 11.7188Z" fill="rgb(255,255,255)" fill-rule="nonzero" />
		<path id="Oval Copy" d="M13.6719 12.1094C13.8876 12.1094 14.0625 11.9345 14.0625 11.7188C14.0625 11.503 13.8876 11.3281 13.6719 11.3281C13.4561 11.3281 13.2812 11.503 13.2812 11.7188C13.2812 11.9345 13.4561 12.1094 13.6719 12.1094Z" fill="rgb(255,255,255)" fill-rule="nonzero" />
	</g>
</svg>
