<svg viewBox="0 0 27.431 27.0326" xmlns="http://www.w3.org/2000/svg" xmlns:xlink="http://www.w3.org/1999/xlink" width="27.431034" height="27.032608" fill="none" customFrame="#000000">
	<path id="Vector" d="M16.2672 1.886C18.7001 1.886 20.4284 1.888 21.7396 2.06172C23.0232 2.23179 23.7628 2.55074 24.3027 3.08285C24.9243 3.69535 25.1948 4.17014 25.3446 5.01655C25.5136 5.97056 25.5172 7.33139 25.5172 9.74431C25.5172 10.2651 25.9457 10.6873 26.4741 10.6873C27.0026 10.6873 27.431 10.2651 27.431 9.74431L27.431 9.62321C27.4311 7.36104 27.4311 5.82862 27.2299 4.69235C27.0061 3.42831 26.5292 2.60982 25.656 1.74925C24.7012 0.808314 23.4905 0.390733 21.9946 0.192542C20.5411 -3.40934e-05 18.684 -1.90218e-05 16.3392 0L16.2672 0C15.7388 0 15.3103 0.422196 15.3103 0.942999C15.3103 1.4638 15.7388 1.886 16.2672 1.886ZM11.1638 0L11.0918 0C8.74709 -1.90218e-05 6.8899 -3.409e-05 5.43642 0.192542C3.94057 0.390733 2.72985 0.808314 1.77504 1.74925C0.901793 2.60982 0.424916 3.42831 0.201096 4.69235C-9.89586e-05 5.82861 -5.81634e-05 7.36108 2.06675e-06 9.62321L6.70563e-06 9.74431C6.70563e-06 10.2651 0.428424 10.6873 0.956903 10.6873C1.48538 10.6873 1.9138 10.2651 1.9138 9.74431C1.9138 7.33139 1.91748 5.97056 2.0864 5.01655C2.23627 4.17014 2.50678 3.69535 3.1283 3.08285C3.66825 2.55074 4.4078 2.23179 5.69143 2.06172C7.00259 1.888 8.73096 1.886 11.1638 1.886C11.6923 1.886 12.1207 1.4638 12.1207 0.942999C12.1207 0.422196 11.6923 0 11.1638 0ZM4.78449 13.5163C4.78449 14.8046 5.16402 15.2384 5.9231 16.1061C7.43876 17.8387 9.98066 19.803 13.7155 19.803C17.4504 19.803 19.9923 17.8387 21.5079 16.1061C22.267 15.2384 22.6465 14.8046 22.6465 13.5163C22.6465 12.228 22.267 11.7942 21.5079 10.9265C19.9923 9.19388 17.4504 7.22965 13.7155 7.22965C9.98066 7.22965 7.43876 9.19388 5.9231 10.9265C5.16402 11.7942 4.78449 12.228 4.78449 13.5163ZM13.7155 10.0586C11.7778 10.0586 10.2069 11.6067 10.2069 13.5163C10.2069 15.4259 11.7778 16.974 13.7155 16.974C15.6533 16.974 17.2241 15.4259 17.2241 13.5163C17.2241 11.6067 15.6533 10.0586 13.7155 10.0586ZM13.7155 11.9446C12.8347 11.9446 12.1207 12.6483 12.1207 13.5163C12.1207 14.3843 12.8347 15.088 13.7155 15.088C14.5963 15.088 15.3103 14.3843 15.3103 13.5163C15.3103 12.6483 14.5963 11.9446 13.7155 11.9446ZM1.9138 17.2883C1.9138 16.7675 1.48538 16.3453 0.956903 16.3453C0.428424 16.3453 6.70563e-06 16.7675 6.70563e-06 17.2883L2.06675e-06 17.4095C-5.81634e-05 19.6716 -9.89586e-05 21.204 0.201096 22.3403C0.424916 23.6043 0.901794 24.4228 1.77504 25.2834C2.72985 26.2243 3.94057 26.6419 5.43642 26.8401C6.88988 27.0326 8.74704 27.0326 11.0918 27.0326L11.1638 27.0326C11.6923 27.0326 12.1207 26.6104 12.1207 26.0896C12.1207 25.5688 11.6923 25.1466 11.1638 25.1466C8.73096 25.1466 7.00259 25.1446 5.69143 24.9709C4.4078 24.8008 3.66825 24.4819 3.1283 23.9498C2.50678 23.3373 2.23627 22.8625 2.0864 22.0161C1.91748 21.0621 1.9138 19.7012 1.9138 17.2883ZM26.4741 16.3453C27.0026 16.3453 27.431 16.7675 27.431 17.2883L27.431 17.4094C27.4311 19.6716 27.4311 21.204 27.2299 22.3403C27.0061 23.6043 26.5292 24.4228 25.656 25.2834C24.7012 26.2243 23.4905 26.6419 21.9946 26.8401C20.5411 27.0326 18.684 27.0326 16.3392 27.0326L16.2672 27.0326C15.7388 27.0326 15.3103 26.6104 15.3103 26.0896C15.3103 25.5688 15.7388 25.1466 16.2672 25.1466C18.7001 25.1466 20.4284 25.1446 21.7396 24.9709C23.0232 24.8008 23.7628 24.4819 24.3027 23.9498C24.9243 23.3373 25.1948 22.8625 25.3446 22.0161C25.5136 21.0621 25.5172 19.7012 25.5172 17.2883C25.5172 16.7675 25.9457 16.3453 26.4741 16.3453Z" fill="rgb(28,39,76)" fill-rule="evenodd" />
</svg>
